<?xml version="1.0" encoding="utf-8"?>
<!-- Generator: Adobe Illustrator 19.2.1, SVG Export Plug-In . SVG Version: 6.00 Build 0)  -->
<svg version="1.1" id="Capa_1" xmlns="http://www.w3.org/2000/svg" xmlns:xlink="http://www.w3.org/1999/xlink" x="0px" y="0px"
	 viewBox="0 0 565 565" style="enable-background:new 0 0 565 565;" xml:space="preserve">
<style type="text/css">
	.st0{fill:#FF0000;}
</style>
<g>
	<path class="st0" d="M282.5,0C126.5,0,0,126.5,0,282.5S126.5,565,282.5,565S565,438.5,565,282.5S438.5,0,282.5,0z M198.2,430.1
		h-66.2V230.9h66.2V430.1z M165.1,203.7h-0.4c-22.2,0-36.6-15.3-36.6-34.4c0-19.5,14.8-34.4,37.5-34.4c22.7,0,36.6,14.9,37,34.4
		C202.5,188.4,188.2,203.7,165.1,203.7z M437,430.1h-66.2V323.5c0-26.8-9.6-45-33.6-45c-18.3,0-29.2,12.3-34,24.2
		c-1.7,4.3-2.2,10.2-2.2,16.1v111.3h-66.3c0,0,0.9-180.5,0-199.2H301v28.2c8.8-13.6,24.5-32.9,59.7-32.9c43.6,0,76.3,28.5,76.3,89.7
		V430.1z"/>
	<path class="st0" d="M301,259.8v-0.6c-0.1,0.2-0.3,0.4-0.4,0.6H301z"/>
</g>
</svg>
