<?xml version="1.0" encoding="utf-8"?>
<!-- Generator: Adobe Illustrator 19.2.1, SVG Export Plug-In . SVG Version: 6.00 Build 0)  -->
<svg version="1.1" id="Layer_1" xmlns="http://www.w3.org/2000/svg" xmlns:xlink="http://www.w3.org/1999/xlink" x="0px" y="0px"
	 viewBox="0 0 69.2 9.4" style="enable-background:new 0 0 69.2 9.4;" xml:space="preserve">
<style type="text/css">
	.st0{fill:#FFFFFF;}
</style>
<g>
	<path class="st0" d="M9.5,4.8C9.4,5.5,9.3,6.2,9.3,6.5c0,0.1,0,0.2,0.1,0.3C9.4,7,9.6,7,9.6,7.2c0,0.2-0.5,1-0.6,1c0,0-0.1,0-0.1,0
		c-0.1,0-0.2-0.1-0.3-0.3c0-0.1-0.1-0.4-0.1-0.7c0-0.4,0-1,0.1-1.5C8.9,4.7,9,4.3,9,3.5L8.2,3.8c0,0,0.2,0.2,0.2,0.5
		c0,0,0,0.1,0,0.2c-0.3,2-3.8,4.8-6,4.8c-0.1,0-0.2,0-0.3,0C0.5,9.1,0,7.5,0,6.3C0,6.2,0,6.1,0,6c0.3-3.8,4.9-5.7,5.1-5.7
		c0.3,0,0.4,0.1,0.4,0.3c0,0,0,0.1,0,0.1c0,0.2-4.1,1.5-4.8,4.8c0,0.2-0.1,0.4-0.1,0.6c0,1,0.4,2.4,1.8,2.4c0.1,0,0.1,0,0.2,0
		c1.9-0.2,4.9-2.9,4.9-4c0-0.2,0-0.3-0.2-0.4c0,0-0.1,0-0.2,0c-0.8,0-3.6,1.4-3.8,1.4C3.3,5.6,3,5.4,3,5.2c0,0,0.1-0.1,0.1-0.1
		c0.3-0.2,3.1-1.7,6.6-2.4c0,0,0,0,0,0c0,0,0,0.2,0,0.3C9.7,3.5,9.6,4.3,9.5,4.8z"/>
	<path class="st0" d="M15,4.2C15,4.3,15,4.3,15,4.2c-0.2,0-0.4-0.1-0.6-0.1c-0.1,0-0.2,0-0.3,0.1c-0.8,0.4-1.7,1.5-2.5,2.8
		c-0.4,0.7-0.3,1.6-0.4,1.8c-0.1,0.1-0.2,0.1-0.3,0.1c-0.1,0-0.2-0.1-0.3-0.1c-0.1-0.1-0.1-0.2-0.1-0.3c0-0.4,0.1-1,0.2-1.9
		c0-0.3,0-0.6,0-0.8c0-1.5-0.3-1.8-0.3-1.9c0,0,0,0,0-0.1c0-0.1,0.2-0.2,0.3-0.2c0.1,0,0.2,0,0.3,0.1c0.2,0.2,0.2,0.4,0.2,1.2
		c0,0.4,0,0.6,0,0.9v0.5c0,0,0.8-1.1,1.6-1.8c0.4-0.4,0.9-1,1.7-1c0.2,0,0.3,0,0.6,0.1c0.1,0,0.2,0.2,0.2,0.3
		C15.3,4.1,15.2,4.2,15,4.2z"/>
	<path class="st0" d="M18.1,8.7c0,0-0.1,0-0.1,0c-0.1,0-0.2,0-0.3-0.1c-0.1-0.1-0.1-0.3-0.1-0.3S16.7,8.9,16,8.9
		c-0.3,0-0.5-0.1-0.7-0.3C15.1,8.5,15,8.3,15,8c0-0.8,0.7-1.8,1.5-1.9c0.1,0,0.1,0,0.2,0c0.7,0,1,0.6,1.1,1.1c0,0,0.2-0.4,0.2-1.1
		c0-0.4-0.1-1-0.4-1.5c-0.2-0.4-0.5-0.5-0.8-0.5c-0.5,0-0.9,0.3-1,0.5c0,0,0,0.1-0.1,0.1c-0.1,0-0.3-0.1-0.3-0.3
		c0-0.4,0.8-0.8,1.5-0.8c0.3,0,0.5,0,0.7,0.2c0.8,0.5,1.1,1.5,1.1,2.4C18.6,7.4,18.1,8.6,18.1,8.7z M16.7,6.7L16.7,6.7
		c-0.8,0.1-1.1,0.8-1.1,1.2c0,0.2,0,0.3,0.1,0.3c0.1,0,0.2,0.1,0.3,0.1c0.6,0,1.4-0.7,1.4-0.7S17.1,6.7,16.7,6.7z"/>
	<path class="st0" d="M24.3,7.9L24.3,7.9c0,0.3,0,0.5,0,0.6c0,0.2,0,0.3-0.3,0.3c-0.1,0-0.1,0-0.2,0c-0.1-0.1-0.2-0.3-0.2-0.5
		c0-0.1,0-0.2,0-0.3c0-0.2,0-0.6,0-1.1c0-0.9-0.1-2-0.3-2.1c0,0-0.1,0-0.2,0c-0.7,0-2.2,1.5-2.6,2.2c-0.3,0.6-0.3,1.1-0.3,1.5
		c0,0.1,0,0.2,0,0.3c0,0.1,0,0.1,0,0.2c0,0.4-0.2,0.6-0.5,0.6c-0.1,0-0.2,0-0.3-0.1c-0.1-0.1-0.1-0.2-0.1-0.3c0-0.2,0.1-0.3,0.2-0.5
		c0.1-0.3,0-1.7,0.3-4.7c0.2-2,0.1-3,0.5-3c0.3,0,0.4,0.2,0.4,0.4c0,0.4-0.2,1-0.3,1.9c-0.1,0.6-0.1,1.3-0.2,1.9
		c0,0.5,0,0.7-0.1,1.1c0,0,1.6-2.1,2.9-2.1c0.1,0,0.2,0,0.3,0c0.6,0.2,0.8,1.5,0.8,2.7C24.3,7.1,24.3,7.6,24.3,7.9z"/>
	<path class="st0" d="M28,8.7c0,0-0.1,0-0.1,0c-0.1,0-0.2,0-0.3-0.1c-0.1-0.1-0.1-0.3-0.1-0.3s-0.9,0.6-1.6,0.6
		c-0.3,0-0.5-0.1-0.7-0.3C25,8.5,25,8.3,25,8c0-0.8,0.7-1.8,1.5-1.9c0.1,0,0.1,0,0.2,0c0.7,0,1,0.6,1.1,1.1c0,0,0.2-0.4,0.2-1.1
		c0-0.4-0.1-1-0.4-1.5c-0.2-0.4-0.5-0.5-0.8-0.5c-0.5,0-0.9,0.3-1,0.5c0,0,0,0.1-0.1,0.1c-0.1,0-0.3-0.1-0.3-0.3
		c0-0.4,0.8-0.8,1.5-0.8c0.3,0,0.5,0,0.7,0.2c0.8,0.5,1.1,1.5,1.1,2.4C28.5,7.4,28.1,8.6,28,8.7z M26.6,6.7L26.6,6.7
		c-0.8,0.1-1.1,0.8-1.1,1.2c0,0.2,0,0.3,0.1,0.3c0.1,0,0.2,0.1,0.3,0.1c0.6,0,1.4-0.7,1.4-0.7S27,6.7,26.6,6.7z"/>
	<path class="st0" d="M35.9,8.3c0,0.1-0.2,0.2-0.3,0.2c-0.1,0-0.2,0-0.3-0.2c-0.1-0.2-0.1-0.7-0.1-1.3c0-0.6,0-1.3,0-1.6v0
		c0-0.1,0-1.3-0.3-1.3c-0.1,0-0.9,1.2-1.5,2.6c-0.7,1.6-0.6,2.5-0.9,2.5c0,0,0,0,0,0c-0.5-0.1-0.4-0.4-0.4-1.6
		c-0.1-1.8-0.1-3-0.3-3.1c0,0,0,0,0,0c-0.3,0-1.3,2-1.5,3.6c0,0.2,0,0.3,0,0.4c0,0.2,0,0.3,0,0.4c0,0.1,0,0.1-0.1,0.2
		C30,9,29.9,9,29.8,9c-0.1,0-0.3,0-0.3-0.1c0-0.1-0.1-0.3-0.1-0.5c0-0.8,0.2-2.1,0.2-2.4c0-0.2,0-0.3,0-0.5c0-0.4,0-0.7,0-1
		c0-0.1,0-0.2,0-0.2c0.1-0.1,0.2-0.2,0.3-0.2c0.1,0,0.2,0,0.2,0.1c0.2,0.2,0.2,0.2,0.3,0.8c0,0,0.8-1.8,1.2-1.8
		c0.2,0,0.5,0.2,0.6,0.4c0.1,0.2,0.2,1.1,0.3,3.1c0,0,1.5-3.4,2.4-3.6c0.3,0,0.6,0.4,0.7,0.7c0.1,0.4,0.1,1.7,0.1,2.6
		c0,0.5,0,0.9,0,0.9c0,0.2,0.1,0.4,0.1,0.6C35.9,8.2,35.9,8.3,35.9,8.3z"/>
	<path class="st0" d="M47.2,5.8c0,1.7,0.1,2.4,0.3,2.7c0,0.1,0.2,0.2,0.2,0.4c0,0.1-0.1,0.2-0.3,0.3c-0.1,0-0.1,0-0.2,0
		c-0.4,0-0.4-0.5-0.4-0.6c0,0-0.2-1.5-0.2-2.7v-2c0,0-1.7,0.3-2,0.4c-0.3,0.1-1,0.2-1.6,0.3c0,0-0.1,1.2-0.3,2.3
		c-0.1,0.6-0.1,1-0.1,1.4v0.1c0,0.3,0,0.5,0,0.6C42.4,8.9,42.3,9,42.3,9c-0.1,0-0.3-0.1-0.4-0.2c0,0-0.1-0.2-0.1-0.3
		c0-0.8,0.3-2.5,0.3-3c0-0.6,0.1-0.5,0.1-1c-0.2,0-0.3-0.2-0.3-0.4c0-0.2,0.2-0.3,0.4-0.4c0,0,0-1,0-1.7c0-0.3,0-0.5,0-0.6
		c0-0.2-0.1-0.4-0.1-0.5c0-0.1,0-0.2,0.1-0.2c0.1-0.1,0.2-0.1,0.4-0.1c0.1,0,0.2,0,0.3,0.1c0.1,0.1,0.2,0.7,0.2,1.1V2
		c0,0.6-0.1,1.1-0.1,1.7c0,0,0.8-0.1,1.8-0.3c0.8-0.1,1.2-0.3,1.8-0.3c0,0,0-1.7,0.1-1.9c0.1-0.2,0.3-0.3,0.4-0.3
		c0.1,0,0.2,0,0.3,0.1c0,0,0,0.1,0,0.3c0,0.3-0.1,1-0.1,1.6c0,0,0,0.1,0,0.1c0,0,1.5-0.2,2-0.2c0.1,0,0.2,0,0.2,0
		c0.1,0.1,0.2,0.2,0.2,0.4c0,0.1,0,0.2-0.1,0.3c-0.1,0.1-0.2,0.1-0.3,0.1c-0.2,0-0.3-0.1-0.3-0.1c0,0-0.1,0-0.2,0
		c-0.3,0-1,0.2-1.5,0.3C47.2,3.6,47.2,4.8,47.2,5.8z"/>
	<path class="st0" d="M52.1,8.7c0,0-0.1,0-0.1,0c-0.1,0-0.2,0-0.3-0.1c-0.1-0.1-0.1-0.3-0.1-0.3S50.7,8.9,50,8.9
		c-0.3,0-0.5-0.1-0.7-0.3C49.1,8.5,49,8.3,49,8c0-0.8,0.7-1.8,1.5-1.9c0.1,0,0.1,0,0.2,0c0.7,0,1,0.6,1.1,1.1c0,0,0.2-0.4,0.2-1.1
		c0-0.4-0.1-1-0.4-1.5c-0.2-0.4-0.5-0.5-0.8-0.5c-0.5,0-0.9,0.3-1,0.5c0,0,0,0.1-0.1,0.1c-0.1,0-0.3-0.1-0.3-0.3
		c0-0.4,0.8-0.8,1.5-0.8c0.3,0,0.5,0,0.7,0.2c0.8,0.5,1.1,1.5,1.1,2.4C52.6,7.4,52.1,8.6,52.1,8.7z M50.7,6.7L50.7,6.7
		c-0.8,0.1-1.1,0.8-1.1,1.2c0,0.2,0,0.3,0.1,0.3c0.1,0,0.2,0.1,0.3,0.1c0.6,0,1.4-0.7,1.4-0.7S51.1,6.7,50.7,6.7z"/>
	<path class="st0" d="M59.8,7.6c-0.1,0-0.2,0.1-0.3,0.1c0,0-0.1,0-0.1,0s-0.1,0-0.2,0c-0.2,0-0.6,0.1-2.5,0.6
		c-1.4,0.4-2.7,0.5-2.9,0.5c-0.2,0-0.2,0-0.6-0.3c0,0-0.1-0.1-0.1-0.1c0-0.3,1-0.8,2.6-2.5c0.4-0.4,0.7-0.8,0.7-1c0,0,0,0,0-0.1
		c0,0-0.2,0-0.5,0c-0.3,0-0.6,0-0.9,0.1C54.6,4.9,54.2,5,54,5c-0.1,0-0.2,0-0.2-0.1c0,0-0.1-0.1-0.1-0.1c0-0.3,0.9-0.6,1.4-0.6
		c0.2,0,0.5,0,0.7,0c0.7,0,1.3,0.1,1.3,0.2c0,0,0,0.1,0,0.1c0,0.2-0.2,0.7-0.7,1.4c-0.6,0.7-2.1,2-2.1,2.1c0,0,0,0,0.1,0
		c0.4,0,2.4-0.3,3.1-0.5c0.7-0.1,1.7-0.4,2-0.4c0,0,0,0,0.1,0C59.7,7.1,59.9,7.4,59.8,7.6C59.9,7.5,59.9,7.5,59.8,7.6z"/>
	<path class="st0" d="M64.2,6.9C63.9,7,62,8.8,60.7,8.8c-0.2,0-0.4,0-0.5-0.1c-0.8-0.4-1.3-1.3-1.3-2.2c0-0.1,0-0.3,0-0.4
		c0.3-1.4,1.9-2.3,3.1-2.3c0.4,0,0.7,0.1,1,0.3c0,0,0,0,0,0.1c0,0.3-1,1.1-1.7,1.5c-0.7,0.5-1.5,0.5-1.8,0.6c0,0,0,0.1,0,0.3
		c0,0.3,0.1,0.6,0.3,1c0.2,0.3,0.5,0.6,1,0.6h0c0.9,0,2.8-1.5,2.9-1.7C63.8,6.4,63.9,6,64.1,6c0.1,0,0.1,0,0.2,0.1
		c0.1,0.1,0.2,0.2,0.2,0.3C64.5,6.6,64.4,6.8,64.2,6.9z M62.1,4.4c-0.1,0-0.7,0-1.3,0.3c-0.6,0.3-1,0.8-1,0.8s0.7,0,1.4-0.5
		C61.5,4.8,61.7,4.7,62.1,4.4C62.1,4.4,62.1,4.4,62.1,4.4z"/>
	<path class="st0" d="M66.1,4.4c-0.1,1.1-0.2,2.3-0.2,3.2c0,0.4,0,0.7,0,1.1v0.2c0,0.3,0,0.6-0.3,0.6c-0.1,0-0.2,0-0.3-0.1
		c-0.1-0.1-0.1-0.4-0.1-1c0-1.4,0.3-4,0.4-5.5c0.1-1.6,0.2-2.6,0.3-2.7C66.1,0.1,66.1,0,66.2,0c0.1,0,0.2,0,0.3,0.2
		c0.1,0.1,0.1,0.2,0.1,0.3C66.6,0.9,66.4,1.8,66.1,4.4z"/>
	<path class="st0" d="M68.7,4.4c-0.1,1.1-0.2,2.3-0.2,3.2c0,0.4,0,0.7,0,1.1v0.2c0,0.3,0,0.6-0.3,0.6c-0.1,0-0.2,0-0.3-0.1
		c-0.1-0.1-0.1-0.4-0.1-1c0-1.4,0.3-4,0.4-5.5c0.1-1.6,0.2-2.6,0.3-2.7C68.6,0.1,68.7,0,68.8,0c0.1,0,0.2,0,0.3,0.2
		c0.1,0.1,0.1,0.2,0.1,0.3C69.2,0.9,69,1.8,68.7,4.4z"/>
</g>
</svg>
